# xmcd CD database file generated by Grip 3.0.4
# 
# Track frame offsets:
#       150
#       19942
#       33000
#       44382
#       56925
#       76257
#       89450
#       101122
#       116345
#       132375
# 
# Disc length: 2006 seconds
# 
# Revision: 4
# Processed by: cddbd v1.4PL0 Copyright (c) Steve Scherf et al.
# Submitted via: Grip 3.0.4
# 
DISCID=7f07d40a
DTITLE=Marty Robbins - Super Hits
DYEAR=1995
DGENRE=Country
TTITLE0=El Paso
TTITLE1=Devil Woman
TTITLE2=Ribbon Of Darkness
TTITLE3=Tonight Carmen
TTITLE4=El Paso City
TTITLE5=Return To Me
TTITLE6=Among My Souvenirs
TTITLE7=Some Memories Just Won't Die
TTITLE8=My Woman, My Woman, My Wife
TTITLE9=You Gave Me A Mountain
EXTD=
EXTT0=
EXTT1=
EXTT2=
EXTT3=
EXTT4=
EXTT5=
EXTT6=
EXTT7=
EXTT8=
EXTT9=
PLAYORDER=
